# xmcd
#
# Track frame offsets:
#	150
#	12586
#	25146
#	37372
#	53616
#	68581
#	81071
#	95937
#	109186
#	119573
#	131346
#	144401
#	162644
#	174890
#	190759
#	203067
#	212926
#	227575
#	237255
#	246265
#
# Disc length: 3439 seconds
#
# Revision: 1
# Processed by: cddbd v1.5.2PL0 Copyright (c) Steve Scherf et al.
# Submitted via: audiograbber 1.83.01
#
DISCID=1d0d6d14
DTITLE=Various Artist - Out and Out Country CD 1
DYEAR=2012
DGENRE=Country
TTITLE0=Kenny Rogers - Reuben James
TTITLE1=Freddy Fender - Wasted Days And Nights
TTITLE2=Moe Bandy - Just Good Ol' Boys
TTITLE3=Exile - She's A Miracle
TTITLE4=Asleep At The Wheel - Route 66
TTITLE5=T G Sheppard - Tryin' To Beat The Morning Home
TTITLE6=Juice Newton - Queen Of Hearts
TTITLE7=Lynn Anderson - (I Never Promised You A) Rose Garden
TTITLE8=Patsy Cline - Three Cigarettes In An Ashtray
TTITLE9=Donna Fargo - The Happiest Girl In The Whole USA
TTITLE10=T Graham Brown - Brilliant Conversationalist
TTITLE11=Freddy Fender - Secret Love
TTITLE12=Alabama - Lovin' You Is Killin' Me
TTITLE13=Boxcar Willie - Your Cheatin' Heart
TTITLE14=Lacy J Dalton - Dream Baby
TTITLE15=Lynn Anderson - What A Man My Man Is
TTITLE16=Holly Dunn - Love Someone Like Me
TTITLE17=Johnny Cash - All Over Again
TTITLE18=Jim Reeves - Billy Bayou
TTITLE19=Willie Nelson - Night Life
EXTD=
EXTT0=
EXTT1=
EXTT2=
EXTT3=
EXTT4=
EXTT5=
EXTT6=
EXTT7=
EXTT8=
EXTT9=
EXTT10=
EXTT11=
EXTT12=
EXTT13=
EXTT14=
EXTT15=
EXTT16=
EXTT17=
EXTT18=
EXTT19=
PLAYORDER=
